<svg width="572" height="95" viewBox="0 0 572 95" fill="none" xmlns="http://www.w3.org/2000/svg">
<path d="M33.328 94.28C26.0747 94.28 19.8453 93.0427 14.64 90.568C9.52 88.0933 4.86933 84.3813 0.688 79.432L12.208 67.912C14.8533 71.4107 17.9253 74.1413 21.424 76.104C24.9227 77.9813 29.1893 78.92 34.224 78.92C38.7467 78.92 42.3307 78.024 44.976 76.232C47.7067 74.44 49.072 71.9653 49.072 68.808C49.072 66.0773 48.304 63.8587 46.768 62.152C45.232 60.4453 43.184 58.9947 40.624 57.8C38.1493 56.6053 35.376 55.5387 32.304 54.6C29.3173 53.576 26.288 52.424 23.216 51.144C20.2293 49.864 17.456 48.2853 14.896 46.408C12.4213 44.4453 10.416 41.9707 8.88 38.984C7.344 35.912 6.576 32.072 6.576 27.464C6.576 22.0027 7.89867 17.352 10.544 13.512C13.1893 9.672 16.816 6.728 21.424 4.67999C26.032 2.63199 31.2373 1.60799 37.04 1.60799C43.184 1.60799 48.7307 2.75999 53.68 5.064C58.6293 7.368 62.6827 10.3547 65.84 14.024L54.32 25.544C51.6747 22.6427 48.944 20.5093 46.128 19.144C43.3973 17.7787 40.2827 17.096 36.784 17.096C32.7733 17.096 29.616 17.864 27.312 19.4C25.008 20.936 23.856 23.1547 23.856 26.056C23.856 28.5307 24.624 30.536 26.16 32.072C27.696 33.608 29.7013 34.9307 32.176 36.04C34.736 37.1493 37.5093 38.216 40.496 39.24C43.568 40.264 46.5973 41.416 49.584 42.696C52.656 43.976 55.4293 45.64 57.904 47.688C60.464 49.736 62.512 52.3813 64.048 55.624C65.584 58.7813 66.352 62.7067 66.352 67.4C66.352 75.7627 63.408 82.3333 57.52 87.112C51.632 91.8907 43.568 94.28 33.328 94.28ZM119.899 93V57.544C119.899 53.8747 118.747 50.888 116.443 48.584C114.139 46.28 111.152 45.128 107.483 45.128C105.094 45.128 102.96 45.64 101.083 46.664C99.2057 47.688 97.7123 49.1387 96.603 51.016C95.579 52.8933 95.067 55.0693 95.067 57.544L88.539 54.216C88.539 49.352 89.563 45.128 91.611 41.544C93.659 37.8747 96.475 35.016 100.059 32.968C103.728 30.92 107.91 29.896 112.603 29.896C117.296 29.896 121.435 30.92 125.019 32.968C128.688 35.016 131.547 37.832 133.595 41.416C135.643 45 136.667 49.1387 136.667 53.832V93H119.899ZM78.299 93V0.455994H95.067V93H78.299ZM179.23 94.28C173.001 94.28 167.369 92.872 162.334 90.056C157.385 87.1547 153.417 83.272 150.43 78.408C147.529 73.4587 146.078 67.9547 146.078 61.896C146.078 55.8373 147.529 50.4187 150.43 45.64C153.331 40.776 157.299 36.936 162.334 34.12C167.369 31.2187 172.958 29.768 179.102 29.768C185.417 29.768 191.049 31.2187 195.998 34.12C201.033 36.936 205.001 40.776 207.902 45.64C210.803 50.4187 212.254 55.8373 212.254 61.896C212.254 67.9547 210.803 73.4587 207.902 78.408C205.001 83.272 201.033 87.1547 195.998 90.056C191.049 92.872 185.459 94.28 179.23 94.28ZM179.102 78.664C182.259 78.664 185.033 77.9813 187.422 76.616C189.897 75.1653 191.774 73.2027 193.054 70.728C194.419 68.168 195.102 65.2667 195.102 62.024C195.102 58.7813 194.419 55.9227 193.054 53.448C191.689 50.9733 189.811 49.0533 187.422 47.688C185.033 46.2373 182.259 45.512 179.102 45.512C176.03 45.512 173.299 46.2373 170.91 47.688C168.521 49.0533 166.643 50.9733 165.278 53.448C163.913 55.9227 163.23 58.7813 163.23 62.024C163.23 65.2667 163.913 68.168 165.278 70.728C166.643 73.2027 168.521 75.1653 170.91 76.616C173.299 77.9813 176.03 78.664 179.102 78.664ZM238.186 93L215.018 31.176H231.914L247.018 76.104L241.898 76.232L257.386 31.176H269.546L285.034 76.232L279.914 76.104L295.018 31.176H311.914L288.874 93H276.714L261.098 50.248H265.834L250.218 93H238.186ZM347.858 94.28C341.543 94.28 335.869 92.872 330.834 90.056C325.799 87.24 321.831 83.4 318.93 78.536C316.029 73.672 314.578 68.2107 314.578 62.152C314.578 56.008 316.029 50.504 318.93 45.64C321.831 40.776 325.799 36.936 330.834 34.12C335.954 31.2187 341.629 29.768 347.858 29.768C352.722 29.768 357.202 30.664 361.298 32.456C365.394 34.248 368.935 36.808 371.922 40.136L361.17 51.016C359.549 49.224 357.586 47.8587 355.282 46.92C353.063 45.9813 350.589 45.512 347.858 45.512C344.786 45.512 342.013 46.2373 339.538 47.688C337.149 49.0533 335.229 50.9733 333.778 53.448C332.413 55.8373 331.73 58.696 331.73 62.024C331.73 65.2667 332.413 68.168 333.778 70.728C335.229 73.2027 337.149 75.1653 339.538 76.616C342.013 77.9813 344.786 78.664 347.858 78.664C350.674 78.664 353.191 78.1947 355.41 77.256C357.714 76.232 359.677 74.7813 361.298 72.904L372.178 83.784C369.021 87.1973 365.394 89.8 361.298 91.592C357.202 93.384 352.722 94.28 347.858 94.28ZM406.155 94.28C400.523 94.28 395.446 92.872 390.923 90.056C386.4 87.24 382.859 83.4 380.299 78.536C377.739 73.672 376.459 68.2107 376.459 62.152C376.459 56.008 377.739 50.504 380.299 45.64C382.859 40.776 386.4 36.936 390.923 34.12C395.446 31.304 400.523 29.896 406.155 29.896C410.592 29.896 414.56 30.792 418.059 32.584C421.558 34.376 424.331 36.8933 426.379 40.136C428.512 43.2933 429.664 46.8773 429.835 50.888V73.16C429.664 77.256 428.512 80.8827 426.379 84.04C424.331 87.1973 421.558 89.7147 418.059 91.592C414.56 93.384 410.592 94.28 406.155 94.28ZM409.227 78.792C413.92 78.792 417.718 77.256 420.619 74.184C423.52 71.0267 424.971 66.9733 424.971 62.024C424.971 58.7813 424.288 55.9227 422.923 53.448C421.643 50.888 419.808 48.9253 417.419 47.56C415.115 46.1093 412.384 45.384 409.227 45.384C406.155 45.384 403.424 46.1093 401.035 47.56C398.731 48.9253 396.896 50.888 395.531 53.448C394.251 55.9227 393.611 58.7813 393.611 62.024C393.611 65.352 394.251 68.296 395.531 70.856C396.896 73.3307 398.731 75.2933 401.035 76.744C403.424 78.1093 406.155 78.792 409.227 78.792ZM424.075 93V76.36L426.763 61.256L424.075 46.408V31.176H440.715V93H424.075ZM476.797 94.408C473.298 94.408 469.842 93.9387 466.429 93C463.101 92.0613 460.029 90.7813 457.213 89.16C454.397 87.4533 451.965 85.4053 449.917 83.016L459.901 72.904C462.034 75.2933 464.509 77.0853 467.325 78.28C470.141 79.4747 473.256 80.072 476.669 80.072C479.4 80.072 481.448 79.688 482.813 78.92C484.264 78.152 484.989 77 484.989 75.464C484.989 73.7573 484.221 72.4347 482.685 71.496C481.234 70.5573 479.314 69.7893 476.925 69.192C474.536 68.5093 472.018 67.784 469.373 67.016C466.813 66.1627 464.338 65.096 461.949 63.816C459.56 62.4507 457.597 60.616 456.061 58.312C454.61 55.9227 453.885 52.8507 453.885 49.096C453.885 45.1707 454.824 41.7573 456.701 38.856C458.664 35.9547 461.437 33.6933 465.021 32.072C468.605 30.4507 472.829 29.64 477.693 29.64C482.813 29.64 487.421 30.536 491.517 32.328C495.698 34.12 499.154 36.808 501.885 40.392L491.773 50.504C489.896 48.2 487.762 46.536 485.373 45.512C483.069 44.488 480.552 43.976 477.821 43.976C475.346 43.976 473.426 44.36 472.061 45.128C470.781 45.896 470.141 46.9627 470.141 48.328C470.141 49.864 470.866 51.0587 472.317 51.912C473.853 52.7653 475.816 53.5333 478.205 54.216C480.594 54.8133 483.069 55.5387 485.629 56.392C488.274 57.16 490.749 58.2693 493.053 59.72C495.442 61.1707 497.362 63.0907 498.813 65.48C500.349 67.8693 501.117 70.9413 501.117 74.696C501.117 80.7547 498.941 85.576 494.589 89.16C490.237 92.6587 484.306 94.408 476.797 94.408ZM541.992 94.28C535.507 94.28 529.747 92.9147 524.712 90.184C519.677 87.368 515.667 83.528 512.68 78.664C509.779 73.8 508.328 68.2533 508.328 62.024C508.328 55.88 509.736 50.4187 512.552 45.64C515.453 40.776 519.379 36.936 524.328 34.12C529.277 31.2187 534.781 29.768 540.84 29.768C546.813 29.768 552.061 31.1333 556.584 33.864C561.192 36.5093 564.776 40.1787 567.336 44.872C569.981 49.48 571.304 54.728 571.304 60.616C571.304 61.7253 571.219 62.8773 571.048 64.072C570.963 65.1813 570.749 66.4613 570.408 67.912L518.44 68.04V55.496L562.6 55.368L555.816 60.616C555.645 56.9467 554.963 53.8747 553.768 51.4C552.659 48.9253 550.995 47.048 548.776 45.768C546.643 44.4027 543.997 43.72 540.84 43.72C537.512 43.72 534.611 44.488 532.136 46.024C529.661 47.4747 527.741 49.5653 526.376 52.296C525.096 54.9413 524.456 58.0987 524.456 61.768C524.456 65.5227 525.139 68.808 526.504 71.624C527.955 74.3547 530.003 76.488 532.648 78.024C535.293 79.4747 538.365 80.2 541.864 80.2C545.021 80.2 547.88 79.688 550.44 78.664C553 77.5547 555.219 75.9333 557.096 73.8L566.952 83.656C563.965 87.1547 560.296 89.8 555.944 91.592C551.677 93.384 547.027 94.28 541.992 94.28Z" fill="black"/>
</svg>
